<svg fill="#FFFFFF" width="800px" height="800px" viewBox="0 0 24 24" id="sign-out-alt-2" data-name="Flat Color" xmlns="http://www.w3.org/2000/svg" class="icon flat-color">

<g id="SVGRepo_bgCarrier" stroke-width="0"/>

<g id="SVGRepo_tracerCarrier" stroke-linecap="round" stroke-linejoin="round"/>

<g id="SVGRepo_iconCarrier">

<path id="secondary" d="M21.71,11.29l-4-4a1,1,0,1,0-1.42,1.42L18.59,11H8a1,1,0,0,0,0,2H18.59l-2.3,2.29a1,1,0,0,0,0,1.42,1,1,0,0,0,1.42,0l4-4A1,1,0,0,0,21.71,11.29Z" style="fill: #6785FF;"/>

<path id="primary" d="M8,14a2,2,0,0,1,0-4h6V4a2,2,0,0,0-2-2H4A2,2,0,0,0,2,4V20a2,2,0,0,0,2,2h8a2,2,0,0,0,2-2V14Z" style="fill: #FFFFFF"/>

</g>

</svg>